<svg width="64" height="64" viewBox="0 0 64 64" fill="none" xmlns="http://www.w3.org/2000/svg">
<g clip-path="url(#clip0_113_40)">
<path d="M0 0H64V64H18L0 46V0Z" fill="#9DC3C2"/>
<path d="M22.6033 48C22.47 48 22.4033 47.9166 22.4033 47.75L22.5033 13.4C22.5033 13.2666 22.57 13.2 22.7033 13.2H32.3033C34.2033 13.2 35.9033 13.6666 37.4033 14.6C38.9033 15.5 40.0867 16.7 40.9533 18.2C41.82 19.7 42.2533 21.3333 42.2533 23.1C42.2533 24.5333 41.92 25.8666 41.2533 27.1C40.62 28.3333 39.8533 29.3333 38.9533 30.1C39.92 31.0666 40.67 32.1833 41.2033 33.45C41.7367 34.7166 42.0033 36.05 42.0033 37.45C42.0033 39.3833 41.5367 41.15 40.6033 42.75C39.67 44.35 38.4033 45.6333 36.8033 46.6C35.2367 47.5333 33.4867 48 31.5533 48H22.6033ZM28.5033 27H32.3033C33.47 27 34.4033 26.6 35.1033 25.8C35.8367 24.9666 36.2033 24.0666 36.2033 23.1C36.2033 22.0333 35.82 21.1166 35.0533 20.35C34.2867 19.55 33.37 19.15 32.3033 19.15H28.5033V27ZM28.4533 41.9H31.5533C32.7533 41.9 33.7867 41.4666 34.6533 40.6C35.52 39.7 35.9533 38.65 35.9533 37.45C35.9533 36.25 35.52 35.2166 34.6533 34.35C33.7867 33.4833 32.7533 33.05 31.5533 33.05H28.5033L28.4533 41.9Z" fill="#5A8E8D"/>
</g>
<defs>
<clipPath id="clip0_113_40">
<rect width="64" height="64" fill="white"/>
</clipPath>
</defs>
</svg>
